<mxfile host="app.diagrams.net" modified="2024-02-29T07:54:23.891Z" agent="Mozilla/5.0 (Windows NT 10.0; Win64; x64) AppleWebKit/537.36 (KHTML, like Gecko) Chrome/122.0.0.0 Safari/537.36 Edg/122.0.0.0" etag="sebW33LVg3utWK75YxHa" version="23.1.7" type="github">
  <diagram name="第 1 页" id="aMbxk89v2ZNGfgOyP-cM">
    <mxGraphModel dx="3354" dy="1907" grid="1" gridSize="10" guides="1" tooltips="1" connect="1" arrows="1" fold="1" page="1" pageScale="1" pageWidth="827" pageHeight="1169" math="0" shadow="0">
      <root>
        <mxCell id="0" />
        <mxCell id="1" parent="0" />
        <mxCell id="yleCkMZKv3fV-EEQnAf6-34" value="" style="edgeStyle=orthogonalEdgeStyle;rounded=0;orthogonalLoop=1;jettySize=auto;html=1;strokeColor=default;align=center;verticalAlign=middle;fontFamily=华文中宋;fontSize=16;fontColor=default;labelBackgroundColor=default;endArrow=blockThin;endFill=1;" edge="1" parent="1" source="yleCkMZKv3fV-EEQnAf6-1" target="yleCkMZKv3fV-EEQnAf6-6">
          <mxGeometry relative="1" as="geometry" />
        </mxCell>
        <mxCell id="yleCkMZKv3fV-EEQnAf6-1" value="spice_editor&lt;br&gt;asc_editor&lt;br&gt;编辑网表文件" style="rounded=0;whiteSpace=wrap;html=1;fillColor=none;fontFamily=华文中宋;fontSize=16;" vertex="1" parent="1">
          <mxGeometry x="240" y="280" width="120" height="60" as="geometry" />
        </mxCell>
        <mxCell id="yleCkMZKv3fV-EEQnAf6-14" style="edgeStyle=orthogonalEdgeStyle;rounded=0;orthogonalLoop=1;jettySize=auto;html=1;exitX=0.5;exitY=1;exitDx=0;exitDy=0;entryX=0.5;entryY=0;entryDx=0;entryDy=0;strokeColor=default;align=center;verticalAlign=middle;fontFamily=华文中宋;fontSize=16;fontColor=default;labelBackgroundColor=default;endArrow=blockThin;endFill=1;" edge="1" parent="1" source="yleCkMZKv3fV-EEQnAf6-2" target="yleCkMZKv3fV-EEQnAf6-5">
          <mxGeometry relative="1" as="geometry" />
        </mxCell>
        <mxCell id="yleCkMZKv3fV-EEQnAf6-2" value="LTSteps&lt;br&gt;仿真波形采样" style="rounded=0;whiteSpace=wrap;html=1;strokeColor=default;align=center;verticalAlign=middle;fontFamily=华文中宋;fontSize=16;fontColor=default;fillColor=none;" vertex="1" parent="1">
          <mxGeometry x="240" y="620" width="120" height="40" as="geometry" />
        </mxCell>
        <mxCell id="yleCkMZKv3fV-EEQnAf6-32" value="" style="edgeStyle=orthogonalEdgeStyle;rounded=0;orthogonalLoop=1;jettySize=auto;html=1;strokeColor=default;align=center;verticalAlign=middle;fontFamily=华文中宋;fontSize=16;fontColor=default;labelBackgroundColor=default;endArrow=blockThin;endFill=1;" edge="1" parent="1" source="yleCkMZKv3fV-EEQnAf6-4" target="yleCkMZKv3fV-EEQnAf6-2">
          <mxGeometry relative="1" as="geometry" />
        </mxCell>
        <mxCell id="yleCkMZKv3fV-EEQnAf6-4" value="raw_read&lt;br&gt;仿真波形读取" style="rounded=0;whiteSpace=wrap;html=1;strokeColor=default;align=center;verticalAlign=middle;fontFamily=华文中宋;fontSize=16;fontColor=default;fillColor=none;" vertex="1" parent="1">
          <mxGeometry x="240" y="540" width="120" height="40" as="geometry" />
        </mxCell>
        <mxCell id="yleCkMZKv3fV-EEQnAf6-31" value="" style="edgeStyle=orthogonalEdgeStyle;rounded=0;orthogonalLoop=1;jettySize=auto;html=1;strokeColor=default;align=center;verticalAlign=middle;fontFamily=华文中宋;fontSize=16;fontColor=default;labelBackgroundColor=default;endArrow=blockThin;endFill=1;" edge="1" parent="1" source="yleCkMZKv3fV-EEQnAf6-5" target="yleCkMZKv3fV-EEQnAf6-30">
          <mxGeometry relative="1" as="geometry" />
        </mxCell>
        <mxCell id="yleCkMZKv3fV-EEQnAf6-41" style="edgeStyle=elbowEdgeStyle;rounded=0;orthogonalLoop=1;jettySize=auto;html=1;exitX=1;exitY=0.5;exitDx=0;exitDy=0;strokeColor=default;align=center;verticalAlign=middle;fontFamily=华文中宋;fontSize=16;fontColor=default;labelBackgroundColor=default;endArrow=blockThin;endFill=1;" edge="1" parent="1" source="yleCkMZKv3fV-EEQnAf6-5">
          <mxGeometry relative="1" as="geometry">
            <mxPoint x="300" y="140" as="targetPoint" />
            <Array as="points">
              <mxPoint x="440" y="430" />
            </Array>
          </mxGeometry>
        </mxCell>
        <mxCell id="yleCkMZKv3fV-EEQnAf6-5" value="Excel&lt;br&gt;数据存储" style="rounded=0;whiteSpace=wrap;html=1;strokeColor=default;align=center;verticalAlign=middle;fontFamily=华文中宋;fontSize=16;fontColor=default;fillColor=none;" vertex="1" parent="1">
          <mxGeometry x="240" y="700" width="120" height="40" as="geometry" />
        </mxCell>
        <mxCell id="yleCkMZKv3fV-EEQnAf6-37" value="" style="edgeStyle=orthogonalEdgeStyle;rounded=0;orthogonalLoop=1;jettySize=auto;html=1;strokeColor=default;align=center;verticalAlign=middle;fontFamily=华文中宋;fontSize=16;fontColor=default;labelBackgroundColor=default;endArrow=blockThin;endFill=1;" edge="1" parent="1" source="yleCkMZKv3fV-EEQnAf6-6" target="yleCkMZKv3fV-EEQnAf6-36">
          <mxGeometry relative="1" as="geometry" />
        </mxCell>
        <mxCell id="yleCkMZKv3fV-EEQnAf6-6" value="sim_runner&lt;br&gt;仿真运行" style="rounded=0;whiteSpace=wrap;html=1;fillColor=none;fontFamily=华文中宋;fontSize=16;" vertex="1" parent="1">
          <mxGeometry x="240" y="380" width="120" height="40" as="geometry" />
        </mxCell>
        <mxCell id="yleCkMZKv3fV-EEQnAf6-17" value="" style="edgeStyle=orthogonalEdgeStyle;rounded=0;orthogonalLoop=1;jettySize=auto;html=1;strokeColor=default;align=center;verticalAlign=middle;fontFamily=华文中宋;fontSize=16;fontColor=default;labelBackgroundColor=default;endArrow=blockThin;endFill=1;" edge="1" parent="1" target="yleCkMZKv3fV-EEQnAf6-11">
          <mxGeometry relative="1" as="geometry">
            <mxPoint x="300" y="120" as="sourcePoint" />
          </mxGeometry>
        </mxCell>
        <mxCell id="yleCkMZKv3fV-EEQnAf6-35" value="" style="edgeStyle=orthogonalEdgeStyle;rounded=0;orthogonalLoop=1;jettySize=auto;html=1;strokeColor=default;align=center;verticalAlign=middle;fontFamily=华文中宋;fontSize=16;fontColor=default;labelBackgroundColor=default;endArrow=blockThin;endFill=1;" edge="1" parent="1" source="yleCkMZKv3fV-EEQnAf6-11" target="yleCkMZKv3fV-EEQnAf6-1">
          <mxGeometry relative="1" as="geometry" />
        </mxCell>
        <mxCell id="yleCkMZKv3fV-EEQnAf6-39" style="edgeStyle=orthogonalEdgeStyle;rounded=0;orthogonalLoop=1;jettySize=auto;html=1;exitX=0;exitY=0.5;exitDx=0;exitDy=0;entryX=0;entryY=0.5;entryDx=0;entryDy=0;strokeColor=default;align=center;verticalAlign=middle;fontFamily=华文中宋;fontSize=16;fontColor=default;labelBackgroundColor=default;endArrow=blockThin;endFill=1;" edge="1" parent="1" source="yleCkMZKv3fV-EEQnAf6-11" target="yleCkMZKv3fV-EEQnAf6-30">
          <mxGeometry relative="1" as="geometry">
            <Array as="points">
              <mxPoint x="160" y="200" />
              <mxPoint x="160" y="800" />
            </Array>
          </mxGeometry>
        </mxCell>
        <mxCell id="yleCkMZKv3fV-EEQnAf6-11" value="故障类遍历&lt;br&gt;注入完成？" style="rhombus;whiteSpace=wrap;html=1;rounded=0;strokeColor=default;align=center;verticalAlign=middle;fontFamily=华文中宋;fontSize=16;fontColor=default;fillColor=none;" vertex="1" parent="1">
          <mxGeometry x="220" y="160" width="160" height="80" as="geometry" />
        </mxCell>
        <mxCell id="yleCkMZKv3fV-EEQnAf6-20" value="开始" style="rounded=1;whiteSpace=wrap;html=1;strokeColor=default;align=center;verticalAlign=middle;fontFamily=华文中宋;fontSize=16;fontColor=default;labelBackgroundColor=default;fillColor=none;arcSize=50;" vertex="1" parent="1">
          <mxGeometry x="260" y="80" width="80" height="40" as="geometry" />
        </mxCell>
        <mxCell id="yleCkMZKv3fV-EEQnAf6-28" value="是" style="text;html=1;align=center;verticalAlign=middle;whiteSpace=wrap;rounded=0;fontFamily=华文中宋;fontSize=16;fontColor=default;labelBackgroundColor=default;" vertex="1" parent="1">
          <mxGeometry x="160" y="170" width="60" height="30" as="geometry" />
        </mxCell>
        <mxCell id="yleCkMZKv3fV-EEQnAf6-29" value="否" style="text;html=1;align=center;verticalAlign=middle;whiteSpace=wrap;rounded=0;fontFamily=华文中宋;fontSize=16;fontColor=default;labelBackgroundColor=default;" vertex="1" parent="1">
          <mxGeometry x="290" y="240" width="60" height="30" as="geometry" />
        </mxCell>
        <mxCell id="yleCkMZKv3fV-EEQnAf6-30" value="结束" style="rounded=1;whiteSpace=wrap;html=1;strokeColor=default;align=center;verticalAlign=middle;fontFamily=华文中宋;fontSize=16;fontColor=default;labelBackgroundColor=default;fillColor=none;arcSize=50;" vertex="1" parent="1">
          <mxGeometry x="260" y="780" width="80" height="40" as="geometry" />
        </mxCell>
        <mxCell id="yleCkMZKv3fV-EEQnAf6-38" value="" style="edgeStyle=orthogonalEdgeStyle;rounded=0;orthogonalLoop=1;jettySize=auto;html=1;strokeColor=default;align=center;verticalAlign=middle;fontFamily=华文中宋;fontSize=16;fontColor=default;labelBackgroundColor=default;endArrow=blockThin;endFill=1;" edge="1" parent="1" source="yleCkMZKv3fV-EEQnAf6-36" target="yleCkMZKv3fV-EEQnAf6-4">
          <mxGeometry relative="1" as="geometry" />
        </mxCell>
        <mxCell id="yleCkMZKv3fV-EEQnAf6-36" value="raw_write&lt;br&gt;波形直接写入" style="rounded=0;whiteSpace=wrap;html=1;strokeColor=default;align=center;verticalAlign=middle;fontFamily=华文中宋;fontSize=16;fontColor=default;fillColor=none;" vertex="1" parent="1">
          <mxGeometry x="240" y="460" width="120" height="40" as="geometry" />
        </mxCell>
      </root>
    </mxGraphModel>
  </diagram>
</mxfile>
